HIERARCHY
ROOT Hips
{
	OFFSET 0.00000 0.00000 0.00000
	CHANNELS 6 Xposition Yposition Zposition Zrotation Yrotation Xrotation 
	JOINT LHipJoint
	{
		OFFSET 0 0 0
		CHANNELS 3 Zrotation Yrotation Xrotation
		JOINT LeftUpLeg
		{
			OFFSET 1.54859 -1.61379 0.86856
			CHANNELS 3 Zrotation Yrotation Xrotation
			JOINT LeftLeg
			{
				OFFSET 2.25087 -6.18423 0.00000
				CHANNELS 3 Zrotation Yrotation Xrotation
				JOINT LeftFoot
				{
					OFFSET 2.40328 -6.60297 0.00000
					CHANNELS 3 Zrotation Yrotation Xrotation
					JOINT LeftToeBase
					{
						OFFSET 0.17435 -0.47901 2.02453
						CHANNELS 3 Zrotation Yrotation Xrotation
						End Site
						{
							OFFSET 0.00000 -0.00000 1.04844
						}
					}
				}
			}
		}
	}
	JOINT RHipJoint
	{
		OFFSET 0 0 0
		CHANNELS 3 Zrotation Yrotation Xrotation
		JOINT RightUpLeg
		{
			OFFSET -1.54669 -1.61379 0.86856
			CHANNELS 3 Zrotation Yrotation Xrotation
			JOINT RightLeg
			{
				OFFSET -2.28132 -6.26789 0.00000
				CHANNELS 3 Zrotation Yrotation Xrotation
				JOINT RightFoot
				{
					OFFSET -2.51636 -6.91365 0.00000
					CHANNELS 3 Zrotation Yrotation Xrotation
					JOINT RightToeBase
					{
						OFFSET -0.15124 -0.41552 2.21090
						CHANNELS 3 Zrotation Yrotation Xrotation
						End Site
						{
							OFFSET -0.00000 -0.00000 1.13399
						}
					}
				}
			}
		}
	}
	JOINT LowerBack
	{
		OFFSET 0 0 0
		CHANNELS 3 Zrotation Yrotation Xrotation
		JOINT Spine
		{
			OFFSET -0.04287 2.26161 -0.25690
			CHANNELS 3 Zrotation Yrotation Xrotation
			JOINT Spine1
			{
				OFFSET 0.02248 2.28395 -0.10140
				CHANNELS 3 Zrotation Yrotation Xrotation
				JOINT Neck
				{
					OFFSET 0 0 0
					CHANNELS 3 Zrotation Yrotation Xrotation
					JOINT Neck1
					{
						OFFSET -0.11644 1.38496 0.11345
						CHANNELS 3 Zrotation Yrotation Xrotation
						JOINT Head
						{
							OFFSET 0.29383 1.36600 0.06642
							CHANNELS 3 Zrotation Yrotation Xrotation
							End Site
							{
								OFFSET 0.11075 1.41395 -0.00294
							}
						}
					}
				}
				JOINT LeftShoulder
				{
					OFFSET 0 0 0
					CHANNELS 3 Zrotation Yrotation Xrotation
					JOINT LeftArm
					{
						OFFSET 3.51628 0.59542 -0.30346
						CHANNELS 3 Zrotation Yrotation Xrotation
						JOINT LeftForeArm
						{
							OFFSET 4.76405 -0.00000 0.00000
							CHANNELS 3 Zrotation Yrotation Xrotation
							JOINT LeftHand
							{
								OFFSET 3.13759 -0.00000 -0.00000
								CHANNELS 3 Zrotation Yrotation Xrotation
								JOINT LeftFingerBase
								{
									OFFSET 0 0 0
									CHANNELS 3 Zrotation Yrotation Xrotation
									JOINT LeftHandIndex1
									{
										OFFSET 0.73226 -0.00000 -0.00000
										CHANNELS 3 Zrotation Yrotation Xrotation
										End Site
										{
											OFFSET 0.59037 -0.00000 -0.00000
										}
									}
								}
								JOINT LThumb
								{
									OFFSET 0 0 0
									CHANNELS 3 Zrotation Yrotation Xrotation
									End Site
									{
										OFFSET 0.59938 -0.00000 0.59938
									}
								}
							}
						}
					}
				}
				JOINT RightShoulder
				{
					OFFSET 0 0 0
					CHANNELS 3 Zrotation Yrotation Xrotation
					JOINT RightArm
					{
						OFFSET -3.30990 0.84213 -0.36430
						CHANNELS 3 Zrotation Yrotation Xrotation
						JOINT RightForeArm
						{
							OFFSET -5.10161 -0.00000 -0.00000
							CHANNELS 3 Zrotation Yrotation Xrotation
							JOINT RightHand
							{
								OFFSET -3.23267 -0.00000 -0.00000
								CHANNELS 3 Zrotation Yrotation Xrotation
								JOINT RightFingerBase
								{
									OFFSET 0 0 0
									CHANNELS 3 Zrotation Yrotation Xrotation
									JOINT RightHandIndex1
									{
										OFFSET -0.70200 -0.00000 -0.00000
										CHANNELS 3 Zrotation Yrotation Xrotation
										End Site
										{
											OFFSET -0.56597 -0.00000 -0.00000
										}
									}
								}
								JOINT RThumb
								{
									OFFSET 0 0 0
									CHANNELS 3 Zrotation Yrotation Xrotation
									End Site
									{
										OFFSET -0.57461 -0.00000 0.57461
									}
								}
							}
						}
					}
				}
			}
		}
	}
}
MOTION
Frames: 11
Frame Time: .0083333
-35.3731 15.1266 15.2649 0 0 0 0 0 0 -21 0 0 0 0 0 0 0 0 0 0 0 0 0 0 21 0 0 0 0 0 0 0 0 0 0 0 0 0 0 0 0 0 0 0 0 0 0 -16 0 0 21 0 0 11 0 0 0 -8 0 0 0 0 0 0 0 0 0 0 0 0 0 0 0 0 0 0 0 0 8 0 0 0 0 0 0 0 0 0 0 0 0 0 0 0 0 0
-35.3731 15.1266 15.2649 -142.2060 80.1737 -134.1840 0.0000 0.0000 0.0000 -34.8440 8.8259 18.2127 2.0455 8.9602 25.6710 0.7857 15.5098 17.9399 0.9136 -6.0904 -17.0471 0.0000 0.0000 0.0000 6.0954 24.7989 -54.8799 -7.7206 -15.9098 51.5498 -0.1285 7.4331 -7.7115 -4.4873 12.7821 -38.5581 -12.3003 -0.1323 17.8885 4.9587 -1.5442 6.9183 12.8632 -0.8652 -1.8770 -7.7907 1.9160 -7.8345 11.5743 4.9419 -14.7926 4.8211 2.7942 -3.5383 -0.0000 -0.0000 0.0000 -62.4092 5.4422 49.8698 82.8189 -59.8042 -53.7851 -0.0000 0.0000 -26.1449 32.4153 16.8456 10.4268 -7.1250 0.0000 -0.0000 4.5391 49.6574 0.5222 -0.0000 -0.0000 0.0000 94.4652 11.8630 30.9724 -97.4002 59.7921 -66.4043 0.0000 -0.0000 -15.3517 -20.8485 22.4534 -8.2758 7.1250 -0.0000 -0.0000 5.0501 -6.2020 4.4928
-34.8373 15.1392 15.0667 -143.5430 80.3423 -135.1610 0.0000 0.0000 0.0000 -36.0887 7.7871 16.0243 2.9589 10.6282 31.0358 0.7474 15.0303 17.4569 0.0913 -1.9492 -5.3653 0.0000 0.0000 0.0000 7.2123 23.0759 -54.4634 -7.4482 -15.6980 50.5497 -0.1780 7.3926 -8.5140 -4.9848 13.3666 -40.7569 -12.4449 -0.3030 17.1792 4.9646 -1.7372 6.8096 12.9604 -0.9926 -1.5565 -8.3577 2.6654 -7.6538 10.8689 6.1149 -16.2899 4.6684 3.4398 -4.1460 -0.0000 0.0000 0.0000 -63.1448 7.4185 50.8332 83.6190 -59.8456 -54.4768 -0.0000 0.0000 -26.5603 32.8976 17.1128 10.7769 -7.1250 0.0000 -0.0000 5.0064 50.0509 0.6247 -0.0000 0.0000 0.0000 94.3125 10.8774 31.6724 -98.0337 59.7547 -66.9517 0.0000 -0.0000 -15.2310 -20.8590 22.5209 -8.3036 7.1250 -0.0000 -0.0000 5.0494 -6.1300 4.4993
-34.2588 15.1247 14.8363 -140.6550 81.0876 -133.2230 0.0000 0.0000 0.0000 -37.3740 8.2769 15.0917 3.9664 12.1156 36.1422 0.5520 14.3927 15.5805 0.0000 0.0104 0.0286 0.0000 0.0000 0.0000 9.0920 21.5006 -52.7386 -7.3170 -15.5931 50.0633 -0.1894 7.8018 -8.8515 -5.3190 13.7343 -42.1835 -12.6385 -0.1210 16.9769 5.0885 -1.4581 7.2329 13.1574 -0.9137 -1.0483 -9.9086 3.6617 -9.5190 11.0270 7.7521 -15.7902 4.9870 4.4150 -3.9286 -0.0000 -0.0000 0.0000 -64.8556 9.5107 51.6637 83.3279 -59.8311 -54.2251 -0.0000 0.0000 -26.4012 33.5405 17.6836 11.3851 -7.1250 0.0000 -0.0000 5.6223 50.8281 0.8096 -0.0000 -0.0000 0.0000 93.6321 10.4155 32.4038 -98.0213 59.7555 -66.9409 0.0000 -0.0000 -15.2481 -20.8723 22.4943 -8.3001 7.1250 -0.0000 -0.0000 5.0387 -6.1555 4.4872
-33.7034 15.1052 14.6054 -135.7230 81.1998 -128.9750 0.0000 0.0000 0.0000 -37.4258 9.1878 13.4929 5.0980 13.4933 41.2443 0.4099 14.2498 14.2417 0.0298 1.1140 3.0626 0.0000 0.0000 0.0000 11.2639 19.8357 -51.1102 -7.2138 -15.5093 49.6784 -0.1507 8.6582 -8.6308 -5.5284 13.9552 -43.0583 -12.0878 -0.0329 16.8292 5.3492 -1.1981 7.5372 13.0717 -0.8074 -0.7340 -10.1240 4.0735 -10.2769 10.5690 8.2932 -15.2623 4.8873 4.7296 -3.7080 0.0000 -0.0000 0.0000 -66.9545 11.4265 52.5436 81.1077 -59.6991 -52.3068 -0.0000 0.0000 -25.6846 34.4517 18.3477 12.1861 -7.1250 0.0000 -0.0000 6.5270 51.7738 1.0926 0.0000 -0.0000 0.0000 92.9550 10.1659 33.1382 -98.1492 59.7476 -67.0514 0.0000 -0.0000 -14.4362 -20.9146 22.4463 -8.3016 7.1250 -0.0000 -0.0000 5.0080 -6.1989 4.4554
-33.1745 15.0729 14.3808 -131.6850 80.9248 -125.2440 0.0000 0.0000 0.0000 -36.9265 9.9601 11.2993 6.3629 14.7710 46.4214 0.3376 14.3494 13.6108 0.1240 2.2701 6.2528 0.0000 0.0000 0.0000 13.0315 18.2052 -49.7529 -7.1756 -15.4780 49.5353 -0.1528 8.8686 -8.7621 -5.7731 14.2048 -44.0640 -11.1953 -0.0912 16.7371 5.5951 -1.1089 7.6314 12.7936 -0.7508 -0.6476 -9.9737 4.2921 -10.1520 10.1012 8.4671 -15.0014 4.7055 4.8048 -3.6496 -0.0000 0.0000 0.0000 -69.3894 13.0239 53.3873 76.0982 -59.2570 -47.9908 -0.0000 0.0000 -24.5600 35.5621 19.0657 13.1449 -7.1250 0.0000 -0.0000 7.6703 52.8370 1.4861 -0.0000 0.0000 0.0000 92.4681 10.0377 33.3146 -99.1313 59.6826 -67.8995 0.0000 -0.0000 -14.1573 -20.9358 22.4105 -8.2983 7.1250 -0.0000 -0.0000 4.9915 -6.2326 4.4374
-32.6376 15.0356 14.1515 -127.2530 80.7676 -121.3710 0.0000 0.0000 0.0000 -35.9490 11.3568 9.0809 7.8135 15.9803 51.8880 0.1054 14.1150 11.1087 0.0191 0.8933 2.4552 0.0000 0.0000 0.0000 14.4717 16.7443 -47.9409 -7.1722 -15.4752 49.5225 -0.1284 9.3241 -8.6247 -6.0079 14.4360 -45.0135 -10.2674 -0.0643 16.7909 5.6811 -0.9120 7.8422 12.2920 -0.6373 -0.5460 -9.7814 4.5375 -10.0334 9.8203 8.7114 -14.7763 4.5754 4.9123 -3.6104 0.0000 -0.0000 0.0000 -71.6796 15.6643 53.8158 72.9084 -58.8669 -45.2546 -0.0000 0.0000 -23.4156 36.7208 20.4282 14.5935 -7.1250 0.0000 -0.0000 8.8851 54.6829 2.1260 0.0000 -0.0000 0.0000 92.2203 9.8999 34.3999 -100.1009 59.6109 -68.7362 0.0000 -0.0000 -11.0209 -21.1205 22.3408 -8.3531 7.1250 -0.0000 -0.0000 4.8694 -6.2758 4.3240
-32.0963 14.9959 13.9242 -121.9300 80.6222 -116.7750 0.0000 0.0000 0.0000 -34.8768 12.8341 7.1239 9.3809 17.0467 57.3984 -0.0984 13.6121 8.2967 0.0001 0.0664 0.1823 0.0000 0.0000 0.0000 15.6032 15.6784 -45.6514 -7.1744 -15.4770 49.5308 -0.0708 10.0910 -8.1913 -5.9039 14.3346 -44.5950 -9.4825 0.0902 16.9002 5.8342 -0.5574 8.1881 11.9303 -0.4549 -0.3531 -9.5939 4.7741 -10.1315 9.4864 8.9832 -14.6689 4.4364 5.0483 -3.5727 -0.0000 0.0000 0.0000 -74.2777 17.7888 54.1667 68.0365 -58.0964 -41.1006 -0.0000 0.0000 -22.7550 37.7219 21.8660 16.0706 -7.1250 0.0000 -0.0000 9.9841 56.6013 2.8593 -0.0000 0.0000 0.0000 91.9626 10.3004 34.6645 -101.1992 59.5207 -69.6832 0.0000 -0.0000 -10.6073 -21.1732 22.3083 -8.3642 7.1250 -0.0000 -0.0000 4.8334 -6.3012 4.2893
-31.5774 14.9410 13.7108 -119.7200 80.1277 -114.7550 0.0000 0.0000 0.0000 -33.5731 13.5345 4.6229 11.1188 17.9927 63.1667 -0.2097 12.8417 5.9586 0.0035 -0.3798 -1.0436 0.0000 0.0000 0.0000 16.1274 14.8138 -43.7236 -7.1645 -15.4688 49.4936 0.0023 10.9881 -7.6706 -5.3280 13.7439 -42.2213 -8.1322 -0.0787 17.0882 5.5994 -0.6031 8.1038 10.8541 -0.4149 -0.5974 -9.0843 5.0863 -9.9275 9.5170 9.3648 -14.6580 4.3455 5.2066 -3.6179 -0.0000 0.0000 0.0000 -76.2536 20.1277 54.2276 62.4930 -56.9385 -36.4231 -0.0000 0.0000 -22.4460 37.8583 22.4467 16.5306 -7.1250 0.0000 -0.0000 10.1255 57.3132 3.0750 -0.0000 0.0000 0.0000 92.5898 10.3363 34.9290 -102.7660 59.3752 -71.0325 0.0000 -0.0000 -10.0523 -21.2736 22.3218 -8.4119 7.1250 -0.0000 -0.0000 4.7716 -6.2709 4.2369
-31.0535 14.8717 13.5035 -118.0690 79.5028 -113.2060 0.0000 0.0000 0.0000 -32.0063 14.0692 2.0353 12.9982 18.7815 69.1200 -0.2240 10.6734 3.1822 0.0250 -1.0206 -2.8056 0.0000 0.0000 0.0000 16.4165 14.2301 -41.6397 -7.2112 -15.5072 49.6687 0.0284 12.6979 -8.5312 -5.3337 13.7501 -42.2453 -6.8140 -0.2466 17.0012 5.5030 -0.6231 8.0921 9.9525 -0.3826 -0.6148 -8.7395 5.2793 -9.7353 9.3028 9.5572 -14.6248 4.2100 5.2826 -3.6337 -0.0000 -0.0000 0.0000 -78.4211 22.2921 54.5445 56.3374 -55.2522 -31.3121 -0.0000 0.0000 -21.4552 38.4809 21.8767 16.4985 -7.1250 0.0000 -0.0000 10.8826 56.8019 3.1737 -0.0000 -0.0000 0.0000 92.8565 10.4918 34.2880 -105.1332 59.1167 -73.0669 0.0000 -0.0000 -11.2064 -21.2793 22.2934 -8.4044 7.1250 -0.0000 -0.0000 4.7654 -6.2996 4.2288
-30.5259 14.7782 13.3050 -117.6070 78.8279 -112.7800 0.0000 0.0000 0.0000 -30.4792 14.4221 -0.7218 14.9937 19.3882 75.2179 -0.1799 8.0636 0.2196 0.0676 -1.6771 -4.6142 0.0000 0.0000 0.0000 16.7169 13.4530 -39.7693 -7.3090 -15.5866 50.0333 -0.2374 13.3765 -12.1023 -6.0372 14.4643 -45.1310 -5.6208 -0.4024 16.7562 5.4699 -0.6345 8.1707 9.1973 -0.3596 -0.4434 -8.4271 5.3524 -9.9444 8.9460 9.5969 -14.4862 4.0567 5.3029 -3.5356 -0.0000 0.0000 0.0000 -80.6435 24.1353 54.8759 50.1681 -53.0631 -26.3084 -0.0000 0.0000 -20.6388 38.8343 21.8312 16.6657 -7.1250 0.0000 -0.0000 11.3043 56.8369 3.3084 -0.0000 0.0000 0.0000 92.8626 10.6908 33.9453 -106.9359 58.8880 -74.6121 0.0000 -0.0000 -10.3490 -21.4284 22.2158 -8.4405 7.1250 -0.0000 -0.0000 4.6648 -6.3566 4.1337
